<?xml version="1.0" standalone="no"?>
<!DOCTYPE svg PUBLIC "-//W3C//DTD SVG 1.1//EN" "http://www.w3.org/Graphics/SVG/1.1/DTD/svg11.dtd" >
<svg xmlns="http://www.w3.org/2000/svg">
<metadata>Generated by IcoMoon</metadata>
<defs>
<font id="icomoon" horiz-adv-x="1024">
<font-face units-per-em="1024" ascent="960" descent="-64" />
<missing-glyph horiz-adv-x="1024" />
<glyph unicode="&#x20;" horiz-adv-x="512" d="" />
<glyph unicode="&#xe900;" glyph-name="home1" d="M1024 369.556l-512 397.426-512-397.428v162.038l512 397.426 512-397.428zM896 384v-384h-256v256h-256v-256h-256v384l384 288z" />
<glyph unicode="&#xe901;" glyph-name="add" d="M968.428 519.442h-384.988v384.99c0 17.538-23.815 55.566-71.442 55.566s-71.442-38.030-71.442-55.566v-384.992h-384.99c-17.536 0.002-55.566-23.813-55.566-71.438s38.030-71.442 55.566-71.442h384.992v-384.992c0-17.534 23.813-55.566 71.442-55.566s71.442 38.032 71.442 55.566v384.992h384.992c17.534 0 55.566 23.813 55.566 71.442s-38.036 71.44-55.572 71.44z" />
<glyph unicode="&#xe902;" glyph-name="big-mattress" d="M1018.356 357.661l-113.735 206.828h1.091v191.382c0 39.134-31.835 70.97-70.97 70.97h-645.484c-39.134 0-70.97-31.835-70.97-70.97v-191.382h1.091l-113.74-206.828h1012.717zM262.141 632.96c0 22.945 18.671 41.616 41.616 41.616h409.023c27.061 0 49.079-22.012 49.079-49.073v-8.853c0-27.056-22.018-49.073-49.079-49.073h-401.567c-27.061 0-49.073 22.012-49.073 49.073v16.31zM167.493 564.483h68.988c16.511-23.578 43.825-39.061 74.732-39.061h401.572c30.903 0 58.222 15.483 74.732 39.061h68.988l90.553-164.669h-870.119l90.553 164.669zM1024 324.144v-193.737c0-33.77-27.472-61.247-61.242-61.247h-901.512c-33.77 0.005-61.247 27.477-61.247 61.252v193.737h1024z" />
<glyph unicode="&#xe903;" glyph-name="cancel-music" d="M633.703 448l365.094 365.094c33.607 33.607 33.607 88.095 0 121.698-33.607 33.607-88.091 33.607-121.698 0l-365.099-365.099-365.099 365.104c-33.607 33.607-88.091 33.607-121.698 0-33.603-33.607-33.603-88.095 0-121.698l365.099-365.094-365.099-365.099c-33.603-33.607-33.603-88.095 0-121.698 33.607-33.607 88.091-33.607 121.698 0l365.099 365.099 365.099-365.099c33.603-33.607 88.091-33.607 121.698 0s33.607 88.091 0 121.698l-365.094 365.094z" />
<glyph unicode="&#xe904;" glyph-name="checked" d="M11.815 408.615c-7.877 7.877-11.815 19.692-11.815 27.569s3.938 19.692 11.815 27.569l55.138 55.138c15.754 15.754 39.385 15.754 55.138 0l3.938-3.938 216.615-232.369c7.877-7.877 19.692-7.877 27.569 0l527.754 547.446h3.938c15.754 15.754 39.385 15.754 55.138 0l55.138-55.138c15.754-15.754 15.754-39.385 0-55.138v0l-630.154-653.785c-7.877-7.877-15.754-11.815-27.569-11.815s-19.692 3.938-27.569 11.815l-307.2 330.831-7.877 11.815z" />
<glyph unicode="&#xe905;" glyph-name="computer-screen" d="M968.393 873.852v1.498h-913.288v-1.498c-29.552-2.031-51.6-25.543-55.105-54.080v-600.221c0-11.542 3.003-21.27 8.016-30.032 11.533-20.308 28.558-30.568 52.104-30.568h329.641v-83.15h-62.62c-15.529 0-27.553-12.077-27.553-27.574s12.024-27.573 27.553-27.573h369.219c15.529 0 28.056 12.077 28.056 27.573 0 15.499-12.526 27.574-28.056 27.574h-62.62v83.15h329.639c23.555 0 40.731 10.26 52.104 30.568 5.162 9.191 8.518 19.024 8.518 30.032v600.22c-3.507 28.538-27.052 52.050-55.609 54.081zM968.393 814.748v-595.198c0-3.527-1.498-5.023-5.013-5.023h-903.262c-3.505 0-5.013 1.496-5.013 5.023v600.221h913.286v-5.023z" />
<glyph unicode="&#xe906;" glyph-name="down-arrow" d="M1007.633 699.864l-33.543 33.776c-10.556 10.548-24.601 16.359-39.612 16.359-15.002 0-29.064-5.811-39.62-16.359l-382.629-382.646-383.071 383.071c-10.54 10.548-24.601 16.351-39.603 16.351s-29.072-5.803-39.62-16.351l-33.551-33.567c-21.846-21.829-21.846-57.386 0-79.215l456.092-457.732c10.54-10.54 24.585-17.966 39.72-17.966h0.175c15.010 0 29.055 7.434 39.595 17.966l455.667 456.491c10.556 10.54 16.351 25.009 16.367 40.011 0 15.010-5.811 29.28-16.367 39.811z" />
<glyph unicode="&#xe907;" glyph-name="envelope" d="M555.401 943.189c-23.671 22.033-63.13 22.033-86.801 0l-459.605-427.878-8.994-0.529v-578.509h1024v570.658l-468.599 436.258zM547.362 226.594l442.505 243.985v-487.987l-442.505 244.002zM34.133-29.577v500.156l907.127-500.173h-907.127z" />
<glyph unicode="&#xe908;" glyph-name="hexagon" d="M970.582 701.184l-448 256c-6.57 3.754-14.592 3.754-21.162 0l-448-256c-6.656-3.798-10.752-10.88-10.752-18.518v-469.334c0-7.638 4.096-14.72 10.752-18.518l448-256c3.286-1.878 6.912-2.816 10.582-2.816s7.296 0.938 10.582 2.816l448 256c6.656 3.798 10.752 10.88 10.752 18.518v469.334c-0.002 7.638-4.098 14.72-10.754 18.518z" />
<glyph unicode="&#xe909;" d="M51.2 823.466c-28.278 0-51.2-22.922-51.2-51.2v-17.066h68.266v68.266h-17.066z" />
<glyph unicode="&#xe90a;" d="M1024 772.266c0 28.278-22.922 51.2-51.2 51.2h-17.066v-68.266h68.266v17.066z" />
<glyph unicode="&#xe90b;" d="M68.266 755.2h68.266v-68.266h-68.266v68.266z" />
<glyph unicode="&#xe90c;" d="M136.534 823.466h68.266v-68.266h-68.266v68.266z" />
<glyph unicode="&#xe90d;" glyph-name="image" d="M959.884 832c0.040-0.034 0.082-0.076 0.116-0.116v-767.77c-0.034-0.040-0.076-0.082-0.116-0.116h-895.77c-0.040 0.034-0.082 0.076-0.114 0.116v767.772c0.034 0.040 0.076 0.082 0.114 0.114h895.77zM960 896h-896c-35.2 0-64-28.8-64-64v-768c0-35.2 28.8-64 64-64h896c35.2 0 64 28.8 64 64v768c0 35.2-28.8 64-64 64v0zM832 672c0-53.020-42.98-96-96-96s-96 42.98-96 96 42.98 96 96 96 96-42.98 96-96zM896 128h-768v128l224 384 256-320h64l224 192z" />
<glyph unicode="&#xe90e;" glyph-name="car" d="M221.866 384.332c-47.052 0-85.334-38.28-85.334-85.334 0-47.052 38.28-85.334 85.334-85.334 47.052 0 85.334 38.28 85.334 85.334 0 47.052-38.28 85.334-85.334 85.334zM221.866 247.798c-28.228 0-51.2 22.972-51.2 51.2s22.972 51.2 51.2 51.2 51.2-22.972 51.2-51.2-22.972-51.2-51.2-51.2zM1006.934 384.332v102.4c0 7.338-4.694 13.876-11.674 16.196l-96.29 32.102c-36.266 61.422-86.118 119.876-196.284 139.178-0.204 0.034-0.41 0.068-0.614 0.102-203.452 28.126-356.198-17.766-454.264-136.448-72.994-1.058-147.508-16.316-191.334-44.374-22.698-14.54-36.164-39.85-37.428-66.782l-1.98-42.376c-9.42 0-17.066-7.646-17.066-17.066v-68.266c0-9.42 7.646-17.066 17.066-17.066h68.266c9.472 0 17.050 7.782 17.066 17.254 0 0.086 0.018 0.17 0.018 0.274 0.256 65.758 53.624 119.006 119.45 119.006 65.98 0 119.466-53.486 119.466-119.466-1.228-10.36 6.946-17.066 17.066-17.066h307.2c9.472 0 17.050 7.782 17.066 17.254 0 0.086 0.016 0.17 0.016 0.274 0.256 65.758 53.624 119.006 119.45 119.006 65.98 0 119.466-53.486 119.466-119.466-1.228-10.36 6.946-17.066 17.066-17.066h68.266c9.42 0 17.066 7.646 17.066 17.066v68.266c0.006 9.418-7.64 17.064-17.060 17.064zM546.134 546.464c0-4.71-3.822-8.534-8.534-8.534h-222.566c-7.884 0-11.468 9.694-5.65 15.002 59.222 53.982 134.536 84.856 227.346 93.064 5 0.444 9.404-3.584 9.404-8.602v-90.93zM751.172 546.38c-0.052-4.676-3.858-8.448-8.534-8.448h-153.838c-4.71 0-8.534 3.822-8.534 8.534v93.184c0 4.728 3.772 8.618 8.482 8.618 34.030 0.034 70.042-2.44 108.322-7.732 18.228-3.208 34.474-7.612 49.254-13.022 3.396-1.246 5.564-4.54 5.53-8.158l-0.682-72.976zM840.244 537.932h-46.404c-4.744 0-8.584 3.874-8.534 8.618l0.444 46.25c0.068 7.048 8.106 10.872 13.79 6.708 18.45-13.482 33.792-29.542 47.462-47.77 4.266-5.682 0.34-13.806-6.758-13.806zM802.134 384.332c-47.052 0-85.334-38.28-85.334-85.334 0-47.052 38.28-85.334 85.334-85.334 47.052 0 85.334 38.28 85.334 85.334-0.002 47.052-38.282 85.334-85.334 85.334zM802.134 247.798c-28.228 0-51.2 22.972-51.2 51.2s22.972 51.2 51.2 51.2c28.228 0 51.2-22.972 51.2-51.2s-22.972-51.2-51.2-51.2z" />
<glyph unicode="&#xe90f;" glyph-name="carpet" d="M358.982 840c-13.938 68.384-74.542 120-146.982 120-82.71 0-150-67.29-150-150v-724c0-82.71 67.29-150 150-150h750v904h-603.018zM122 810c0 49.626 40.374 90 90 90s90-40.374 90-90v-0.082c-25.088 18.876-56.258 30.082-90 30.082s-64.912-11.206-90-30.082v0.082zM122 690c0 49.626 40.374 90 90 90s90-40.374 90-90v-354.284c-27.888 13.234-58.56 20.284-90 20.284s-62.112-7.050-90-20.284v354.284zM122 265.988c25.866 19.426 57.362 30.012 90 30.012s64.134-10.586 90-30.012v-60.076c-25.088 18.878-56.258 30.088-90 30.088s-64.912-11.206-90-30.082v60.070zM296.84 116h-54.84v54.84c25.528-9.054 45.786-29.312 54.84-54.84zM902-4h-690c-49.626 0-90 40.374-90 90 0 39.11 25.082 72.456 60 84.84v-114.84c33.566 0 686.19 0 720 0v-60zM902 116h-540v544h540v-544zM902 720h-540v60h540v-60z" />
<glyph unicode="&#xe910;" glyph-name="company" d="M153.609 704c-0.002 0-0.006 0-0.009 0h-68.267c-9.423 0.002-17.065-7.635-17.067-17.058 0-0.002 0-0.006 0-0.009v-68.267c-0.002-9.423 7.635-17.065 17.058-17.067 0.002 0 0.006 0 0.009 0h68.267c9.423-0.002 17.065 7.635 17.067 17.058 0 0.002 0 0.006 0 0.009v68.267c0.002 9.423-7.635 17.065-17.058 17.067zM136.533 635.733h-34.133v34.133h34.133v-34.133zM358.409 704c-0.002 0-0.006 0-0.009 0h-68.267c-9.423 0.002-17.065-7.635-17.067-17.058 0-0.002 0-0.006 0-0.009v-68.267c-0.002-9.423 7.635-17.065 17.058-17.067 0.002 0 0.006 0 0.009 0h68.267c9.423-0.002 17.065 7.635 17.067 17.058 0 0.002 0 0.006 0 0.009v68.267c0.002 9.423-7.635 17.065-17.058 17.067zM341.333 635.733h-34.133v34.133h34.133v-34.133zM563.209 704c-0.002 0-0.006 0-0.009 0h-68.267c-9.423 0.002-17.065-7.635-17.067-17.058 0-0.002 0-0.006 0-0.009v-68.267c-0.002-9.423 7.635-17.065 17.058-17.067 0.002 0 0.006 0 0.009 0h68.267c9.423-0.002 17.065 7.635 17.067 17.058 0 0.002 0 0.006 0 0.009v68.267c0.002 9.423-7.635 17.065-17.058 17.067zM546.133 635.733h-34.133v34.133h34.133v-34.133zM153.609 516.267c-0.002 0-0.006 0-0.009 0h-68.267c-9.423 0.002-17.065-7.635-17.067-17.058 0-0.002 0-0.006 0-0.009v-68.267c-0.002-9.423 7.635-17.065 17.058-17.067 0.002 0 0.006 0 0.009 0h68.267c9.423-0.002 17.065 7.635 17.067 17.058 0 0.002 0 0.006 0 0.009v68.267c0.002 9.423-7.635 17.065-17.058 17.067zM136.533 448h-34.133v34.133h34.133v-34.133zM358.409 516.267c-0.002 0-0.006 0-0.009 0h-68.267c-9.423 0.002-17.065-7.635-17.067-17.058 0-0.002 0-0.006 0-0.009v-68.267c-0.002-9.423 7.635-17.065 17.058-17.067 0.002 0 0.006 0 0.009 0h68.267c9.423-0.002 17.065 7.635 17.067 17.058 0 0.002 0 0.006 0 0.009v68.267c0.002 9.423-7.635 17.065-17.058 17.067zM341.333 448h-34.133v34.133h34.133v-34.133zM563.209 516.267c-0.002 0-0.006 0-0.009 0h-68.267c-9.423 0.002-17.065-7.635-17.067-17.058 0-0.002 0-0.006 0-0.009v-68.267c-0.002-9.423 7.635-17.065 17.058-17.067 0.002 0 0.006 0 0.009 0h68.267c9.423-0.002 17.065 7.635 17.067 17.058 0 0.002 0 0.006 0 0.009v68.267c0.002 9.423-7.635 17.065-17.058 17.067zM546.133 448h-34.133v34.133h34.133v-34.133zM153.609 328.533c-0.002 0-0.006 0-0.009 0h-68.267c-9.423 0.002-17.065-7.635-17.067-17.058 0-0.002 0-0.006 0-0.009v-68.267c-0.002-9.423 7.635-17.065 17.058-17.067 0.002 0 0.006 0 0.009 0h68.267c9.423-0.002 17.065 7.635 17.067 17.058 0 0.002 0 0.006 0 0.009v68.267c0.002 9.423-7.635 17.065-17.058 17.067zM136.533 260.267h-34.133v34.133h34.133v-34.133zM358.409 328.533c-0.002 0-0.006 0-0.009 0h-68.267c-9.423 0.002-17.065-7.635-17.067-17.058 0-0.002 0-0.006 0-0.009v-68.267c-0.002-9.423 7.635-17.065 17.058-17.067 0.002 0 0.006 0 0.009 0h68.267c9.423-0.002 17.065 7.635 17.067 17.058 0 0.002 0 0.006 0 0.009v68.267c0.002 9.423-7.635 17.065-17.058 17.067zM341.333 260.267h-34.133v34.133h34.133v-34.133zM563.209 328.533c-0.002 0-0.006 0-0.009 0h-68.267c-9.423 0.002-17.065-7.635-17.067-17.058 0-0.002 0-0.006 0-0.009v-68.267c-0.002-9.423 7.635-17.065 17.058-17.067 0.002 0 0.006 0 0.009 0h68.267c9.423-0.002 17.065 7.635 17.067 17.058 0 0.002 0 0.006 0 0.009v68.267c0.002 9.423-7.635 17.065-17.058 17.067zM546.133 260.267h-34.133v34.133h34.133v-34.133zM153.609 140.8c-0.002 0-0.006 0-0.009 0h-68.267c-9.423 0.002-17.065-7.635-17.067-17.058 0-0.002 0-0.006 0-0.009v-68.267c-0.002-9.423 7.635-17.065 17.058-17.067 0.002 0 0.006 0 0.009 0h68.267c9.423-0.002 17.065 7.635 17.067 17.058 0 0.002 0 0.006 0 0.009v68.267c0.002 9.423-7.635 17.065-17.058 17.067zM136.533 72.533h-34.133v34.133h34.133v-34.133zM563.209 140.8c-0.002 0-0.006 0-0.009 0h-68.267c-9.423 0.002-17.065-7.635-17.067-17.058 0-0.002 0-0.006 0-0.009v-68.267c-0.002-9.423 7.635-17.065 17.058-17.067 0.002 0 0.006 0 0.009 0h68.267c9.423-0.002 17.065 7.635 17.067 17.058 0 0.002 0 0.006 0 0.009v68.267c0.002 9.423-7.635 17.065-17.058 17.067zM546.133 72.533h-34.133v34.133h34.133v-34.133zM1006.942 533.333c-0.002 0-0.006 0-0.009 0h-170.667v85.434c15.435-8.695 32.661-13.73 50.351-14.716 1.792-0.1 3.584-0.132 5.359-0.132 28.538 0.060 55.857 11.578 75.823 31.966 6.665 6.66 6.667 17.463 0.006 24.126-0.002 0.002-0.004 0.004-0.006 0.006l-58.624 58.624 41.557 41.559-24.132 24.132-41.559-41.557-58.624 58.624c-6.771 6.4-17.361 6.4-24.132 0-42.496-42.982-42.564-112.137-0.149-155.2v-112.866h-153.6v221.867c0.002 9.423-7.635 17.065-17.058 17.067-0.002 0-0.006 0-0.009 0h-17.067v51.2c0.002 9.423-7.635 17.065-17.058 17.067-0.002 0-0.006 0-0.009 0h-51.2v102.4c0.002 9.423-7.635 17.065-17.058 17.067-0.002 0-0.006 0-0.009 0h-409.602c-9.423 0.002-17.065-7.635-17.067-17.058 0-0.002 0-0.006 0-0.009v-102.4h-51.2c-9.423 0.002-17.065-7.635-17.067-17.058 0-0.002 0-0.006 0-0.009v-51.2h-17.067c-9.423 0.002-17.065-7.635-17.067-17.058 0-0.002 0-0.006 0-0.009v-802.133c-0.002-9.423 7.635-17.065 17.058-17.067 0.002 0 0.006 0 0.009 0h989.867c9.423-0.002 17.065 7.635 17.067 17.058 0 0.002 0 0.006 0 0.009v563.2c0.002 9.423-7.635 17.065-17.058 17.067zM136.533 925.867h375.467v-85.333h-375.467v85.333zM68.267 806.4h512v-34.133h-512v34.133zM307.2-29.867h-68.267v122.75c0.015 17.028 13.813 30.831 30.842 30.85h37.425v-153.6zM409.6-29.867h-68.267v153.6h37.425c17.028-0.019 30.827-13.822 30.842-30.85v-122.75zM614.4-29.867h-170.667v122.75c-0.038 35.87-29.105 64.941-64.975 64.983h-108.983c-35.87-0.043-64.937-29.114-64.975-64.983v-122.75h-170.667v768h580.267v-768zM815.65 763.9l114.675-114.684c-12.474-8.058-27.185-11.938-42.007-11.083-21.675 1.527-42.007 11.055-57.050 26.733-28.384 24.941-34.948 66.571-15.618 99.034zM870.4-29.867h-102.4v92.384c0.019 14.953 12.139 27.070 27.091 27.083h48.218c14.953-0.013 27.074-12.13 27.091-27.083v-92.384zM989.867-29.867h-85.333v92.384c-0.043 33.794-27.43 61.178-61.225 61.216h-48.218c-33.794-0.038-61.182-27.422-61.225-61.216v-92.384h-85.333v529.067h341.333v-529.067zM870.409 465.067c-0.002 0-0.006 0-0.009 0h-102.4c-9.423 0.002-17.065-7.635-17.067-17.058 0-0.002 0-0.006 0-0.009v-102.4c-0.002-9.423 7.635-17.065 17.058-17.067 0.002 0 0.006 0 0.009 0h102.4c9.423-0.002 17.065 7.635 17.067 17.058 0 0.002 0 0.006 0 0.009v102.4c0.002 9.423-7.635 17.065-17.058 17.067zM853.333 362.667h-68.267v68.267h68.267v-68.267zM870.409 294.4c-0.002 0-0.006 0-0.009 0h-102.4c-9.423 0.002-17.065-7.635-17.067-17.058 0-0.002 0-0.006 0-0.009v-102.4c-0.002-9.423 7.635-17.065 17.058-17.067 0.002 0 0.006 0 0.009 0h102.4c9.423-0.002 17.065 7.635 17.067 17.058 0 0.002 0 0.006 0 0.009v102.4c0.002 9.423-7.635 17.065-17.058 17.067zM853.333 192h-68.267v68.267h68.267v-68.267z" />
<glyph unicode="&#xe911;" glyph-name="email" d="M998.322 618.534l-315.808 315.81c-34.182 34.182-89.802 34.182-123.984 0l-492.852-492.854c-17.090-17.092-25.636-39.542-25.636-61.992s8.546-44.9 25.636-61.992l79.238-79.238-87.006-87.006c-3.906-3.906-5.858-9.024-5.858-14.142s1.952-10.236 5.858-14.142c7.81-7.81 20.474-7.812 28.284 0l87.006 87.006 36.238-36.24-203.58-203.582c-3.906-3.904-5.858-9.024-5.858-14.142s1.952-10.238 5.858-14.142c7.81-7.81 20.474-7.81 28.286 0l203.582 203.582 143.76-143.762c34.184-34.18 89.802-34.18 123.984 0l492.852 492.854c16.558 16.556 25.678 38.574 25.678 61.99 0 23.418-9.12 45.434-25.678 61.992zM428.946 18.334c-7.016 2.234-13.622 6.092-19.178 11.648l-315.806 315.808c-12.462 12.464-16.526 30.158-12.276 46.072h347.26v-373.528zM356.652 431.862l59.306 59.306c7.81 7.81 7.812 20.474 0 28.284s-20.474 7.812-28.284 0l-87.592-87.59h-58.27l180.812 180.812c7.808 7.81 7.81 20.474 0 28.286-7.81 7.81-20.474 7.81-28.286 0l-209.094-209.098h-72.624l455.538 455.54v-407.87c0-26.286-21.384-47.67-47.67-47.67h-163.836zM970.040 522.834l-492.854-492.852c-2.542-2.542-5.318-4.704-8.238-6.552v368.432h51.542c48.34 0 87.67 39.328 87.67 87.67v51.542h229.248l-115.734-115.736c-3.904-3.904-5.858-9.024-5.858-14.142 0-5.12 1.952-10.236 5.858-14.142 7.81-7.81 20.474-7.81 28.286 0l144.004 144.004c0.004 0.004 0.008 0.010 0.012 0.014h82.656c-1.87-2.946-4.064-5.712-6.592-8.238zM608.158 571.074v347.26c15.916 4.25 33.61 0.186 46.072-12.276l315.808-315.808c5.464-5.462 9.426-12.020 11.706-19.176h-373.586zM471.58 689.9c-3.72 3.74-8.88 5.86-14.14 5.86-5.28 0-10.42-2.12-14.14-5.86-3.72-3.72-5.86-8.86-5.86-14.14 0-5.26 2.14-10.42 5.86-14.14s8.86-5.86 14.14-5.86c5.26 0 10.42 2.14 14.14 5.86s5.86 8.88 5.86 14.14c0 5.28-2.14 10.42-5.86 14.14zM34.22 99.3c-3.72 3.72-8.88 5.86-14.14 5.86s-10.42-2.14-14.14-5.86c-3.72-3.72-5.86-8.88-5.86-14.14s2.14-10.42 5.86-14.14c3.72-3.72 8.88-5.86 14.14-5.86 5.28 0 10.42 2.14 14.14 5.86 3.74 3.72 5.86 8.88 5.86 14.14s-2.12 10.42-5.86 14.14zM254.036 61.006c-7.812 7.81-20.476 7.81-28.286 0l-90.832-90.832c-3.904-3.904-5.858-9.024-5.858-14.142s1.952-10.238 5.858-14.144c7.812-7.81 20.476-7.81 28.286 0l90.832 90.832c7.808 7.812 7.808 20.476 0 28.286z" />
<glyph unicode="&#xe912;" glyph-name="play" d="M981.188 799.892c-143.632 20.65-302.332 32.108-469.186 32.108-166.86 0-325.556-11.458-469.194-32.108-27.53-107.726-42.808-226.75-42.808-351.892 0-125.14 15.278-244.166 42.808-351.89 143.638-20.652 302.336-32.11 469.194-32.11 166.854 0 325.552 11.458 469.186 32.11 27.532 107.724 42.812 226.75 42.812 351.89 0 125.142-15.28 244.166-42.812 351.892zM384.002 256v384l320-192-320-192z" />
<glyph unicode="&#xe913;" glyph-name="home" d="M512.001 690.953l-365.205-301.073c0-0.425-0.107-1.050-0.32-1.902-0.209-0.845-0.32-1.459-0.32-1.895v-304.868c0-11.008 4.024-20.547 12.071-28.58 8.044-8.038 17.57-12.082 28.58-12.082h243.888v243.902h162.615v-243.911h243.886c11.008 0 20.547 4.036 28.58 12.091 8.047 8.024 12.084 17.57 12.084 28.58v304.868c0 1.691-0.231 2.968-0.641 3.797l-365.219 301.073zM1016.937 458.479l-139.090 115.597v259.143c0 5.924-1.904 10.796-5.726 14.609-3.791 3.809-8.663 5.713-14.6 5.713h-121.946c-5.931 0-10.801-1.904-14.616-5.713-3.806-3.813-5.708-8.687-5.708-14.609v-123.853l-154.974 129.575c-13.535 11.010-29.628 16.514-48.262 16.514-18.631 0-34.722-5.504-48.27-16.514l-456.687-380.462c-4.234-3.381-6.554-7.933-6.985-13.65-0.429-5.713 1.050-10.703 4.443-14.934l39.379-47.002c3.393-3.809 7.833-6.138 13.339-6.99 5.083-0.427 10.167 1.059 15.25 4.445l439.52 366.493 439.524-366.491c3.395-2.954 7.833-4.429 13.339-4.429h1.909c5.497 0.836 9.929 3.181 13.339 6.981l39.383 46.996c3.386 4.24 4.87 9.221 4.429 14.941-0.434 5.702-2.763 10.253-6.988 13.642z" />
<glyph unicode="&#xe914;" glyph-name="magnifier" d="M902.497 250.883c162.002 162.005 161.999 425.609 0 587.614-162.005 162.005-425.606 162.005-587.607 0-137.439-137.439-158.255-341.847-62.502-501.467 0 0 6.878-11.539-2.411-20.822-52.995-52.991-211.988-211.988-211.988-211.988-42.194-42.191-52.239-101.189-14.821-138.614l6.442-6.436c37.418-37.424 96.419-27.383 138.61 14.811 0 0 158.657 158.66 211.543 211.543 9.735 9.735 21.27 2.857 21.27 2.857 159.617-95.75 364.024-74.938 501.464 62.502zM391.599 327.595c-119.705 119.705-119.702 314.477 0.003 434.182 119.705 119.702 314.477 119.705 434.179 0 119.705-119.702 119.705-314.477 0-434.182-119.705-119.699-314.474-119.699-434.182 0zM418.117 569.348c-5.572 0-11.236 1.095-16.695 3.401-21.808 9.23-32.011 34.393-22.781 56.204 58.012 137.093 216.738 201.429 353.828 143.417 21.808-9.23 32.011-34.393 22.781-56.204-9.233-21.811-34.39-32.008-56.208-22.781-93.533 39.578-201.838-4.318-241.413-97.851-6.924-16.359-22.804-26.186-39.513-26.186z" />
<glyph unicode="&#xe915;" d="M204.8 755.2h68.266v-68.266h-68.266v68.266z" />
<glyph unicode="&#xe916;" d="M273.066 823.466h68.266v-68.266h-68.266v68.266z" />
<glyph unicode="&#xe917;" d="M341.334 755.2h68.266v-68.266h-68.266v68.266z" />
<glyph unicode="&#xe918;" d="M409.6 823.466h68.266v-68.266h-68.266v68.266z" />
<glyph unicode="&#xe919;" d="M477.866 755.2h68.266v-68.266h-68.266v68.266z" />
<glyph unicode="&#xe91a;" d="M546.134 823.466h68.266v-68.266h-68.266v68.266z" />
<glyph unicode="&#xe91b;" glyph-name="phone-receiver" d="M1023.511 152.060c2.17-16.624-2.896-31.077-15.177-43.361l-144.177-143.088c-6.504-7.227-14.994-13.375-25.473-18.429-10.479-5.061-20.776-8.313-30.89-9.756-0.723 0-2.896-0.186-6.511-0.547-3.608-0.36-8.306-0.544-14.087-0.544-13.735 0-35.959 2.349-66.674 7.048s-68.293 16.264-112.734 34.689c-44.453 18.429-94.859 46.075-151.227 82.929-56.368 36.852-116.353 87.444-179.95 151.765-50.588 49.866-92.504 97.563-125.748 143.091-33.244 45.531-59.983 87.628-80.219 126.292-20.237 38.664-35.414 73.714-45.531 105.152s-16.983 58.538-20.597 81.303-5.059 40.651-4.336 53.66c0.723 13.008 1.084 20.235 1.084 21.681 1.445 10.118 4.697 20.416 9.756 30.895s11.202 18.971 18.429 25.475l144.177 144.177c10.118 10.118 21.681 15.177 34.689 15.177 9.395 0 17.706-2.71 24.933-8.13s13.37-12.105 18.429-20.055l115.992-220.059c6.504-11.563 8.311-24.21 5.42-37.941s-9.034-25.294-18.429-34.689l-53.118-53.118c-1.445-1.445-2.71-3.794-3.794-7.046s-1.626-5.962-1.626-8.13c2.891-15.177 9.395-32.521 19.513-52.034 8.672-17.345 22.042-38.483 40.109-63.416s43.723-53.658 76.967-86.179c32.521-33.247 61.429-59.080 86.723-77.512 25.289-18.422 46.435-31.977 63.418-40.65s29.992-13.912 39.024-15.713l13.547-2.712c1.445 0 3.799 0.544 7.048 1.626 3.252 1.086 5.601 2.349 7.048 3.796l61.788 62.874c13.016 11.561 28.185 17.343 45.531 17.343 12.289 0 22.040-2.166 29.267-6.504h1.082l209.217-123.58c15.182-9.402 24.214-21.323 27.106-35.777z" />
<glyph unicode="&#xe91c;" d="M614.4 755.2h68.266v-68.266h-68.266v68.266z" />
<glyph unicode="&#xe91d;" glyph-name="office" d="M0-64h512v1024h-512v-1024zM320 832h128v-128h-128v128zM320 576h128v-128h-128v128zM320 320h128v-128h-128v128zM64 832h128v-128h-128v128zM64 576h128v-128h-128v128zM64 320h128v-128h-128v128zM576 640h448v-64h-448zM576-64h128v256h192v-256h128v576h-448z" />
<glyph unicode="&#xe91e;" glyph-name="quill" d="M0-64c128 384 463 1024 1024 1024-263-211-384-704-576-704s-192 0-192 0l-192-320h-64z" />
<glyph unicode="&#xe91f;" glyph-name="couch" d="M973.25 577.54h-20.344v75.61c0 44.698-36.364 81.062-81.062 81.062h-293.782c-27.234 0-51.356-13.514-66.062-34.172-14.706 20.66-38.828 34.172-66.062 34.172h-184.564c-8.284 0-15-6.716-15-15s6.716-15 15-15h184.564c28.156 0 51.062-22.906 51.062-51.062v-150.020c-0.314 0.302-0.646 0.584-0.964 0.882-17.78 16.578-41.878 26.134-66.202 26.134h-249.856c-1.322 20.14-15.052 37.854-33.998 44.57-5.338 1.892-10.982 2.824-16.644 2.824h-28.242v75.61c0 28.156 22.906 51.062 51.062 51.062h49.218c8.284 0 15 6.716 15 15s-6.716 15-15 15h-49.218c-44.698 0-81.062-36.364-81.062-81.062v-75.61h-20.344c-27.984 0-50.75-22.77-50.75-50.75v-156.622c0-58.276 47.412-105.688 105.688-105.688h7.538c0 0-16.424-44.176-16.436-44.21-10.362-27.868 10.966-58.482 40.65-58.482h24.132c13.508 0 26.438 6.432 34.588 17.206l64.662 85.486h502.36l64.662-85.488c8.15-10.772 21.080-17.204 34.586-17.204 0 0 24.116 0 24.13 0 29.72 0 51.010 30.62 40.65 58.482l-16.438 44.21h7.54c58.276 0 105.688 47.412 105.688 105.688v156.622c0 27.98-22.766 50.75-50.75 50.75zM527 653.146c0 28.158 22.906 51.064 51.062 51.064h293.782c28.156 0 51.062-22.906 51.062-51.062v-75.61c0 0-28.234 0-28.244 0-19.944 0-39.076-12.8-46.812-31.164-2.166-5.142-3.464-10.666-3.828-16.232 0 0-249.848 0-249.856 0-24.7 0-49.318-9.938-67.166-27.016v150.020zM180.088 500.144h249.746c37.036-0.002 67.166-30.132 67.166-67.168v-21.33h-316.912v88.498zM172.234 197.092c-2.512-3.322-6.5-5.304-10.664-5.304 0 0-24.048 0-24.132 0-9.184 0-15.73 9.422-12.53 18.026l20.324 54.666h77.972l-50.97-67.388zM886.56 191.79h-24.13c-4.164 0-8.15 1.982-10.662 5.302l-50.972 67.388h77.972c0 0 20.254-54.474 20.324-54.664 3.206-8.624-3.386-18.026-12.532-18.026zM918.312 294.48h-812.624c-41.734-0.002-75.688 33.954-75.688 75.688v156.622c0 11.442 9.308 20.75 20.75 20.75h78.586c11.442 0 20.75-9.308 20.75-20.75v-130.142c0-8.284 6.716-15 15-15h550.954c8.284 0 15 6.716 15 15s-6.716 15-15 15h-189.040v21.33c0 37.036 30.13 67.166 67.166 67.166h249.746v-88.498h-67.872c-8.284 0-15-6.716-15-15s6.716-15 15-15h82.872c8.284 0 15 6.716 15 15v130.142c0 11.442 9.308 20.75 20.75 20.75h78.586c11.442 0 20.75-9.308 20.75-20.75v-156.62h0.002c0-41.734-33.954-75.688-75.688-75.688z" />
<glyph unicode="&#xe920;" d="M682.666 823.466h68.266v-68.266h-68.266v68.266z" />
<glyph unicode="&#xe921;" d="M750.934 755.2h68.266v-68.266h-68.266v68.266z" />
<glyph unicode="&#xe922;" d="M819.2 823.466h68.266v-68.266h-68.266v68.266z" />
<glyph unicode="&#xe923;" d="M887.466 755.2h68.266v-68.266h-68.266v68.266z" />
<glyph unicode="&#xe924;" d="M0 550.4h68.266v-68.266h-68.266v68.266z" />
<glyph unicode="&#xe925;" d="M68.266 482.134h68.266v-68.266h-68.266v68.266z" />
<glyph unicode="&#xe926;" d="M136.534 550.4h68.266v-68.266h-68.266v68.266z" />
<glyph unicode="&#xe927;" d="M204.8 448l19.996 19.996c6.126 6.126 13.132 10.826 20.608 14.138h-40.604v-34.134z" />
<glyph unicode="&#xe928;" d="M341.334 550.4h-68.266v-62.41c9.442 0 18.876-1.964 27.662-5.856h40.604v68.266z" />
<glyph unicode="&#xe929;" d="M409.6 482.134h-68.266v-34.134l34.132-34.134h34.134z" />
<glyph unicode="&#xe92a;" d="M432.736 550.4h-23.136v-68.266h68.266v51.2c-17.304 0-33.096 6.452-45.13 17.066z" />
<glyph unicode="&#xe92b;" d="M477.866 482.134v-68.268h51.2l17.068 17.068v51.2z" />
<glyph unicode="&#xe92c;" d="M546.134 550.4v-68.266h51.2l17.066 17.066v51.2z" />
<glyph unicode="&#xe92d;" d="M887.466 499.2v51.2h-51.2z" />
<glyph unicode="&#xe92e;" d="M955.734 550.4h68.266v-68.266h-68.266v68.266z" />
<glyph unicode="&#xe92f;" d="M955.734 430.934v51.2h-51.2z" />
<glyph unicode="&#xe930;" d="M0 413.866h68.266v-68.266h-68.266v68.266z" />
<glyph unicode="&#xe931;" d="M68.266 345.6v-34.134l34.134 34.134z" />
<glyph unicode="&#xe932;" d="M136.534 379.734l34.132 34.132h-34.132z" />
<glyph unicode="&#xe933;" d="M409.6 413.866v-34.132l34.134-34.134h17.066l17.066 17.066v51.2z" />
<glyph unicode="&#xe934;" d="M0 686.934h68.266v-68.266h-68.266v68.266z" />
<glyph unicode="&#xe935;" d="M68.266 618.666h68.266v-68.266h-68.266v68.266z" />
<glyph unicode="&#xe936;" d="M136.534 686.934h68.266v-68.266h-68.266v68.266z" />
<glyph unicode="&#xe937;" d="M204.8 618.666h68.266v-68.266h-68.266v68.266z" />
<glyph unicode="&#xe938;" d="M273.066 686.934h68.266v-68.266h-68.266v68.266z" />
<glyph unicode="&#xe939;" d="M409.6 601.6v17.066h-68.266v-68.266h68.266z" />
<glyph unicode="&#xe93a;" d="M411.75 618.666c7.578 29.444 34.306 51.2 66.116 51.2v17.066h-68.266v-68.266h2.15z" />
<glyph unicode="&#xe93b;" d="M522.998 550.4h23.136v51.2c0-20.396-8.956-38.69-23.136-51.2z" />
<glyph unicode="&#xe93c;" d="M546.134 618.666h-2.15c1.404-5.454 2.15-11.174 2.15-17.066v17.066z" />
<glyph unicode="&#xe93d;" d="M546.134 686.934h68.266v-68.266h-68.266v68.266z" />
<glyph unicode="&#xe93e;" d="M614.4 618.666v-68.266h51.2l17.066 17.066v51.2z" />
<glyph unicode="&#xe93f;" d="M682.666 686.934h68.266v-68.266h-68.266v68.266z" />
<glyph unicode="&#xe940;" d="M750.934 618.666v-11.21c17.47 0 34.942-6.664 48.27-19.996l19.996-19.994v51.2h-68.266z" />
<glyph unicode="&#xe941;" d="M819.2 686.934h68.266v-68.266h-68.266v68.266z" />
<glyph unicode="&#xe942;" glyph-name="phone" d="M704 320c-64-64-64-128-128-128s-128 64-192 128-128 128-128 192 64 64 128 128-128 256-192 256-192-192-192-192c0-128 131.5-387.5 256-512s384-256 512-256c0 0 192 128 192 192s-192 256-256 192z" />
<glyph unicode="&#xe943;" d="M955.734 686.934h68.266v-68.266h-68.266v68.266z" />
<glyph unicode="&#xe944;" d="M887.466 618.666h68.266v-68.266h-68.266v68.266z" />
<glyph unicode="&#xe945;" d="M432.736 550.4c12.032-10.614 27.822-17.066 45.13-17.066s33.096 6.454 45.13 17.066c14.18 12.51 23.136 30.804 23.136 51.2 0 5.892-0.746 11.612-2.15 17.066-7.578 29.444-34.306 51.2-66.116 51.2s-58.536-21.756-66.116-51.2c-1.404-5.454-2.15-11.174-2.15-17.066 0-20.396 8.956-38.69 23.136-51.2z" />
<glyph unicode="&#xe946;" d="M887.466 499.2l-88.262 88.262c-13.33 13.332-30.802 19.996-48.27 19.996-17.47 0-34.942-6.664-48.27-19.996l-250.398-250.396 264.534-264.532h256c28.278 0 51.2 22.922 51.2 51.2v238.932l-136.534 136.534z" />
<glyph unicode="&#xe947;" d="M452.266 337.066l-130.928 130.93c-6.126 6.126-13.132 10.826-20.608 14.138-8.788 3.894-18.222 5.856-27.662 5.856s-18.876-1.964-27.662-5.856c-7.476-3.31-14.482-8.010-20.608-14.138l-224.798-224.796v-119.466c0-28.278 22.922-51.2 51.2-51.2h665.6l-264.534 264.532z" />
<glyph unicode="&#xe948;" glyph-name="left-arrow" d="M413.363 447.784l383.076 383.093c10.548 10.523 16.351 24.593 16.351 39.595 0 15.010-5.803 29.072-16.351 39.611l-33.567 33.551c-10.531 10.556-24.609 16.367-39.611 16.367s-29.063-5.811-39.603-16.367l-456.113-456.105c-10.581-10.573-16.376-24.701-16.334-39.72-0.042-15.085 5.744-29.196 16.334-39.778l455.688-455.663c10.54-10.556 24.601-16.367 39.611-16.367 15.002 0 29.063 5.811 39.611 16.367l33.559 33.551c21.837 21.837 21.837 57.386 0 79.214l-382.651 382.651z" />
<glyph unicode="&#xe949;" glyph-name="open-envelope" d="M994.994 635.141l-456.835 312.902c-15.658 10.726-36.291 10.726-51.949 0l-456.832-312.902c-24.992-19.35-31.055-30.448-29.009-113.809v-389.389c0-105.888 86.149-192.028 192.037-192.028h639.568c105.88 0 192.026 86.143 192.026 192.028v389.389c0 66.607 0 90.061-29.006 113.809zM831.972 28.61h-639.565c-56.979 0-103.336 46.354-103.336 103.331v386.462l397.14-272.012c7.827-5.357 16.902-8.042 25.977-8.042s18.144 2.682 25.972 8.042l397.14 272.012v-386.459c0-56.979-46.354-103.333-103.328-103.333z" />
<glyph unicode="&#xe94a;" glyph-name="right-arrow-1" d="M1007.633 487.786l-369.803 369.811c-10.556 10.556-24.626 16.351-39.628 16.351-15.019 0-29.080-5.803-39.636-16.351l-33.575-33.584c-10.548-10.54-16.359-24.617-16.359-39.628 0-15.002 5.811-29.554 16.359-40.094l215.738-216.212h-685.408c-30.903 0-55.321-24.193-55.321-55.104v-47.478c0-30.911 24.418-57.543 55.321-57.543h687.856l-218.177-217.419c-10.548-10.556-16.359-24.251-16.359-39.261 0-14.994 5.811-28.888 16.359-39.436l33.575-33.475c10.556-10.556 24.617-16.309 39.636-16.309 15.002 0 29.071 5.828 39.628 16.384l369.803 369.803c10.581 10.59 16.401 24.726 16.359 39.753 0.033 15.077-5.778 29.221-16.367 39.794z" />
<glyph unicode="&#xe94b;" glyph-name="right-arrow" d="M796.462 487.956l-455.693 455.685c-10.54 10.548-24.609 16.359-39.611 16.359s-29.071-5.811-39.611-16.359l-33.559-33.55c-21.837-21.862-21.837-57.393 0-79.222l382.657-382.657-383.081-383.081c-10.54-10.548-16.359-24.609-16.359-39.603 0-15.010 5.819-29.071 16.359-39.628l33.559-33.542c10.548-10.548 24.609-16.359 39.611-16.359s29.071 5.811 39.611 16.359l456.118 456.101c10.565 10.581 16.367 24.709 16.334 39.728 0.033 15.077-5.769 29.196-16.334 39.769z" />
<glyph unicode="&#xe94c;" glyph-name="sent-mail" d="M1018.787 918.063c-4.558 3.998-11.045 4.926-16.543 2.376l-993.387-461.556c-5.348-2.486-8.792-7.822-8.856-13.718s3.266-11.305 8.562-13.904l281.127-137.966c5.155-2.532 11.302-1.959 15.906 1.482l273.333 204.292-214.578-220.719c-3.061-3.15-4.623-7.463-4.286-11.841l21.365-278.237c0.474-6.165 4.607-11.437 10.482-13.369 1.57-0.514 3.184-0.765 4.779-0.765 4.375 0 8.63 1.877 11.59 5.305l149.213 172.908 184.458-88.134c4.004-1.913 8.639-1.993 12.707-0.223 4.068 1.772 7.166 5.219 8.495 9.45l260.142 828.528c1.818 5.786 0.046 12.095-4.509 16.093z" />
<glyph unicode="&#xe94d;" glyph-name="sharing-interface" d="M848.659 295.247c-50.016 0-95.004-21.042-126.945-54.667l-373.219 182.769c1.284 8.543 2.167 17.254 2.167 26.218 0 8.711-0.842 17.212-2.062 25.566l372.672 180.728c31.963-33.856 77.139-55.109 127.387-55.109 96.855 0 175.341 78.507 175.341 175.341 0 96.855-78.486 175.341-175.341 175.341s-175.341-78.486-175.341-175.341c0-8.711 0.842-17.191 2.062-25.566l-372.63-180.728c-31.963 33.856-77.139 55.109-127.387 55.109-96.877 0-175.362-78.507-175.362-175.341 0-96.855 78.486-175.341 175.341-175.341 50.016 0 95.004 21.042 126.945 54.625l373.198-182.748c-1.305-8.543-2.188-17.254-2.188-26.197 0-96.877 78.486-175.341 175.341-175.341s175.341 78.465 175.341 175.341c0.021 96.855-78.465 175.341-175.32 175.341z" />
<glyph unicode="&#xe94e;" glyph-name="up-arrow" d="M1007.629 276.352l-456.111 456.103c-10.54 10.54-24.593 16.326-39.903 16.326-15.002 0-29.063-5.786-39.586-16.326l-455.686-455.67c-10.54-10.548-16.342-24.609-16.342-39.611s5.794-29.071 16.342-39.611l33.559-33.559c10.54-10.54 24.609-16.359 39.611-16.359s29.063 5.819 39.611 16.359l382.65 382.65 383.074-383.091c10.54-10.531 24.601-16.342 39.611-16.342 15.002 0 29.055 5.811 39.603 16.342l33.567 33.575c21.829 21.837 21.829 57.377 0 79.214z" />
<glyph unicode="&#xe94f;" glyph-name="sports-car" d="M1018.153 586.101c-5.008 6.109-12.481 9.675-20.321 9.675h-99.663c-24.594 64.869-56.635 128.426-93.055 152.417-125.988 82.882-460.163 82.882-586.15 0-36.446-24.018-68.356-87.654-93.081-152.417h-99.663c-7.918 0-15.365-3.566-20.321-9.675-4.982-6.083-6.975-14.133-5.349-21.868l14.762-71.528c2.517-12.192 13.267-20.897 25.669-20.897h29.524c-28.501-32.88-42.319-74.282-42.503-115.709-0.184-51.182 19.246-97.434 54.774-130.157 0.393-0.341 0.787-0.577 1.154-0.918v-100.082c0-21.684 17.62-39.33 39.33-39.33h91.928c21.71 0 39.33 17.646 39.33 39.33v40.222h514.989v-40.222c0-21.684 17.62-39.33 39.33-39.33h91.928c21.658 0 39.33 17.646 39.33 39.33v98.116c37.705 34.532 55.718 82.043 55.954 129.475 0.157 42.844-14.29 85.766-44.469 119.328h31.49c12.455 0 23.205 8.705 25.669 20.924l14.788 71.502c1.521 7.682-0.393 15.68-5.375 21.815zM262.149 682.513c100.423 66.101 399.306 66.101 499.677 0 19.508-12.795 44.6-64.528 67.595-127.875h-634.815c22.943 63.322 48.035 115.028 67.543 127.875zM144.525 346.24c0 42.739 34.663 77.349 77.376 77.349 42.765 0 77.376-34.611 77.376-77.349s-34.611-77.376-77.376-77.376c-42.713 0-77.376 34.637-77.376 77.376zM803.148 268.864c-42.713 0-77.376 34.637-77.376 77.376s34.663 77.349 77.376 77.349c42.765 0 77.376-34.611 77.376-77.349s-34.663-77.376-77.376-77.376z" />
<glyph unicode="&#xe958;" glyph-name="mobile" d="M736 960h-448c-52.8 0-96-43.2-96-96v-832c0-52.8 43.2-96 96-96h448c52.8 0 96 43.2 96 96v832c0 52.8-43.2 96-96 96zM384 912h256v-32h-256v32zM512 0c-35.346 0-64 28.654-64 64s28.654 64 64 64 64-28.654 64-64-28.654-64-64-64zM768 192h-512v640h512v-640z" />
<glyph unicode="&#xe96d;" glyph-name="bubbles2" horiz-adv-x="1152" d="M480 960v0c265.096 0 480-173.914 480-388.448s-214.904-388.448-480-388.448c-25.458 0-50.446 1.62-74.834 4.71-103.106-102.694-222.172-121.108-341.166-123.814v25.134c64.252 31.354 116 88.466 116 153.734 0 9.106-0.712 18.048-2.030 26.794-108.558 71.214-177.97 179.988-177.97 301.89 0 214.534 214.904 388.448 480 388.448zM996 89.314c0-55.942 36.314-104.898 92-131.772v-21.542c-103.126 2.318-197.786 18.102-287.142 106.126-21.14-2.65-42.794-4.040-64.858-4.040-95.47 0-183.408 25.758-253.614 69.040 144.674 0.506 281.26 46.854 384.834 130.672 52.208 42.252 93.394 91.826 122.414 147.348 30.766 58.866 46.366 121.582 46.366 186.406 0 10.448-0.45 20.836-1.258 31.168 72.57-59.934 117.258-141.622 117.258-231.676 0-104.488-60.158-197.722-154.24-258.764-1.142-7.496-1.76-15.16-1.76-22.966z" />
<glyph unicode="&#xe989;" glyph-name="enlarge" d="M1024 960h-416l160-160-192-192 96-96 192 192 160-160zM1024-64v416l-160-160-192 192-96-96 192-192-160-160zM0-64h416l-160 160 192 192-96 96-192-192-160 160zM0 960v-416l160 160 192-192 96 96-192 192 160 160z" />
<glyph unicode="&#xea0f;" glyph-name="cross" d="M1014.662 137.34c-0.004 0.004-0.008 0.008-0.012 0.010l-310.644 310.65 310.644 310.65c0.004 0.004 0.008 0.006 0.012 0.010 3.344 3.346 5.762 7.254 7.312 11.416 4.246 11.376 1.824 24.682-7.324 33.83l-146.746 146.746c-9.148 9.146-22.45 11.566-33.828 7.32-4.16-1.55-8.070-3.968-11.418-7.31 0-0.004-0.004-0.006-0.008-0.010l-310.648-310.652-310.648 310.65c-0.004 0.004-0.006 0.006-0.010 0.010-3.346 3.342-7.254 5.76-11.414 7.31-11.38 4.248-24.682 1.826-33.83-7.32l-146.748-146.748c-9.148-9.148-11.568-22.452-7.322-33.828 1.552-4.16 3.97-8.072 7.312-11.416 0.004-0.002 0.006-0.006 0.010-0.010l310.65-310.648-310.65-310.652c-0.002-0.004-0.006-0.006-0.008-0.010-3.342-3.346-5.76-7.254-7.314-11.414-4.248-11.376-1.826-24.682 7.322-33.83l146.748-146.746c9.15-9.148 22.452-11.568 33.83-7.322 4.16 1.552 8.070 3.97 11.416 7.312 0.002 0.004 0.006 0.006 0.010 0.010l310.648 310.65 310.648-310.65c0.004-0.002 0.008-0.006 0.012-0.008 3.348-3.344 7.254-5.762 11.414-7.314 11.378-4.246 24.684-1.826 33.828 7.322l146.746 146.748c9.148 9.148 11.57 22.454 7.324 33.83-1.552 4.16-3.97 8.068-7.314 11.414z" />
<glyph unicode="&#xea10;" glyph-name="checkmark" d="M864 832l-480-480-224 224-160-160 384-384 640 640z" />
<glyph unicode="&#xea1c;" glyph-name="play3" d="M192 832l640-384-640-384z" />
<glyph unicode="&#xea8b;" glyph-name="google-plus" d="M325.8 502.6v-111.8h184.8c-7.4-48-55.8-140.6-184.8-140.6-111.2 0-202 92.2-202 205.8s90.8 205.8 202 205.8c63.4 0 105.6-27 129.8-50.2l88.4 85.2c-56.8 53-130.4 85.2-218.2 85.2-180.2-0.2-325.8-145.8-325.8-326s145.6-325.8 325.8-325.8c188 0 312.8 132.2 312.8 318.4 0 21.4-2.4 37.8-5.2 54h-307.6zM1024 512h-96v96h-96v-96h-96v-96h96v-96h96v96h96z" />
<glyph unicode="&#xea90;" glyph-name="facebook" d="M608 768h160v192h-160c-123.514 0-224-100.486-224-224v-96h-128v-192h128v-512h192v512h160l32 192h-192v96c0 17.346 14.654 32 32 32z" />
<glyph unicode="&#xea92;" glyph-name="instagram" d="M512 867.8c136.8 0 153-0.6 206.8-3 50-2.2 77-10.6 95-17.6 23.8-9.2 41-20.4 58.8-38.2 18-18 29-35 38.4-58.8 7-18 15.4-45.2 17.6-95 2.4-54 3-70.2 3-206.8s-0.6-153-3-206.8c-2.2-50-10.6-77-17.6-95-9.2-23.8-20.4-41-38.2-58.8-18-18-35-29-58.8-38.4-18-7-45.2-15.4-95-17.6-54-2.4-70.2-3-206.8-3s-153 0.6-206.8 3c-50 2.2-77 10.6-95 17.6-23.8 9.2-41 20.4-58.8 38.2-18 18-29 35-38.4 58.8-7 18-15.4 45.2-17.6 95-2.4 54-3 70.2-3 206.8s0.6 153 3 206.8c2.2 50 10.6 77 17.6 95 9.2 23.8 20.4 41 38.2 58.8 18 18 35 29 58.8 38.4 18 7 45.2 15.4 95 17.6 53.8 2.4 70 3 206.8 3zM512 960c-139 0-156.4-0.6-211-3-54.4-2.4-91.8-11.2-124.2-23.8-33.8-13.2-62.4-30.6-90.8-59.2-28.6-28.4-46-57-59.2-90.6-12.6-32.6-21.4-69.8-23.8-124.2-2.4-54.8-3-72.2-3-211.2s0.6-156.4 3-211c2.4-54.4 11.2-91.8 23.8-124.2 13.2-33.8 30.6-62.4 59.2-90.8 28.4-28.4 57-46 90.6-59 32.6-12.6 69.8-21.4 124.2-23.8 54.6-2.4 72-3 211-3s156.4 0.6 211 3c54.4 2.4 91.8 11.2 124.2 23.8 33.6 13 62.2 30.6 90.6 59s46 57 59 90.6c12.6 32.6 21.4 69.8 23.8 124.2 2.4 54.6 3 72 3 211s-0.6 156.4-3 211c-2.4 54.4-11.2 91.8-23.8 124.2-12.6 34-30 62.6-58.6 91-28.4 28.4-57 46-90.6 59-32.6 12.6-69.8 21.4-124.2 23.8-54.8 2.6-72.2 3.2-211.2 3.2v0zM512 711c-145.2 0-263-117.8-263-263s117.8-263 263-263 263 117.8 263 263c0 145.2-117.8 263-263 263zM512 277.4c-94.2 0-170.6 76.4-170.6 170.6s76.4 170.6 170.6 170.6c94.2 0 170.6-76.4 170.6-170.6s-76.4-170.6-170.6-170.6zM846.8 721.4c0-33.91-27.49-61.4-61.4-61.4s-61.4 27.49-61.4 61.4c0 33.91 27.49 61.4 61.4 61.4s61.4-27.49 61.4-61.4z" />
<glyph unicode="&#xea93;" glyph-name="whatsapp" d="M873 811.2c-95.8 96-223.2 148.8-359 148.8-279.6 0-507.2-227.6-507.2-507.4 0-89.4 23.4-176.8 67.8-253.6l-72-263 269 70.6c74.2-40.4 157.6-61.8 242.4-61.8h0.2c0 0 0 0 0 0 279.6 0 507.4 227.6 507.4 507.4 0 135.6-52.8 263-148.6 359zM514.2 30.4v0c-75.8 0-150 20.4-214.8 58.8l-15.4 9.2-159.6-41.8 42.6 155.6-10 16c-42.4 67-64.6 144.6-64.6 224.4 0 232.6 189.2 421.8 422 421.8 112.6 0 218.6-44 298.2-123.6 79.6-79.8 123.4-185.6 123.4-298.4-0.2-232.8-189.4-422-421.8-422zM745.4 346.4c-12.6 6.4-75 37-86.6 41.2s-20 6.4-28.6-6.4c-8.4-12.6-32.8-41.2-40.2-49.8-7.4-8.4-14.8-9.6-27.4-3.2s-53.6 19.8-102 63c-37.6 33.6-63.2 75.2-70.6 87.8s-0.8 19.6 5.6 25.8c5.8 5.6 12.6 14.8 19 22.2s8.4 12.6 12.6 21.2c4.2 8.4 2.2 15.8-1 22.2s-28.6 68.8-39 94.2c-10.2 24.8-20.8 21.4-28.6 21.8-7.4 0.4-15.8 0.4-24.2 0.4s-22.2-3.2-33.8-15.8c-11.6-12.6-44.4-43.4-44.4-105.8s45.4-122.6 51.8-131.2c6.4-8.4 89.4-136.6 216.6-191.4 30.2-13 53.8-20.8 72.2-26.8 30.4-9.6 58-8.2 79.8-5 24.4 3.6 75 30.6 85.6 60.2s10.6 55 7.4 60.2c-3 5.6-11.4 8.8-24.2 15.2z" />
<glyph unicode="&#xea96;" glyph-name="twitter" d="M1024 733.6c-37.6-16.8-78.2-28-120.6-33 43.4 26 76.6 67.2 92.4 116.2-40.6-24-85.6-41.6-133.4-51-38.4 40.8-93 66.2-153.4 66.2-116 0-210-94-210-210 0-16.4 1.8-32.4 5.4-47.8-174.6 8.8-329.4 92.4-433 219.6-18-31-28.4-67.2-28.4-105.6 0-72.8 37-137.2 93.4-174.8-34.4 1-66.8 10.6-95.2 26.2 0-0.8 0-1.8 0-2.6 0-101.8 72.4-186.8 168.6-206-17.6-4.8-36.2-7.4-55.4-7.4-13.6 0-26.6 1.4-39.6 3.8 26.8-83.4 104.4-144.2 196.2-146-72-56.4-162.4-90-261-90-17 0-33.6 1-50.2 3 93.2-59.8 203.6-94.4 322.2-94.4 386.4 0 597.8 320.2 597.8 597.8 0 9.2-0.2 18.2-0.6 27.2 41 29.4 76.6 66.4 104.8 108.6z" />
<glyph unicode="&#xea9d;" glyph-name="youtube" d="M1013.8 652.8c0 0-10 70.6-40.8 101.6-39 40.8-82.6 41-102.6 43.4-143.2 10.4-358.2 10.4-358.2 10.4h-0.4c0 0-215 0-358.2-10.4-20-2.4-63.6-2.6-102.6-43.4-30.8-31-40.6-101.6-40.6-101.6s-10.2-82.8-10.2-165.8v-77.6c0-82.8 10.2-165.8 10.2-165.8s10-70.6 40.6-101.6c39-40.8 90.2-39.4 113-43.8 82-7.8 348.2-10.2 348.2-10.2s215.2 0.4 358.4 10.6c20 2.4 63.6 2.6 102.6 43.4 30.8 31 40.8 101.6 40.8 101.6s10.2 82.8 10.2 165.8v77.6c-0.2 82.8-10.4 165.8-10.4 165.8zM406.2 315.2v287.8l276.6-144.4-276.6-143.4z" />
</font>
</defs>
</svg>
